<svg width="289" height="138" viewBox="0 0 289 138" fill="none" xmlns="http://www.w3.org/2000/svg">
<rect x="22" y="2" width="243.99" height="94" rx="10" fill="#D1FAE5"/>
<rect x="22" y="2" width="243.99" height="94" rx="10" stroke="white" stroke-width="4"/>
<g filter="url(#filter0_dd_1_22)">
<rect x="20" width="248.02" height="98" rx="12" fill="white" fill-opacity="0.01" shape-rendering="crispEdges"/>
</g>
<rect x="48" y="28" width="42" height="42" rx="12" fill="#059669"/>
<path d="M64 54H66V49H64V54ZM72 54H74V44H72V54ZM68 54H70V51H68V54ZM68 49H70V47H68V49ZM62 58C61.45 58 60.9792 57.8042 60.5875 57.4125C60.1958 57.0208 60 56.55 60 56V42C60 41.45 60.1958 40.9792 60.5875 40.5875C60.9792 40.1958 61.45 40 62 40H76C76.55 40 77.0208 40.1958 77.4125 40.5875C77.8042 40.9792 78 41.45 78 42V56C78 56.55 77.8042 57.0208 77.4125 57.4125C77.0208 57.8042 76.55 58 76 58H62Z" fill="white"/>
<path d="M106.779 43V34.2695H110.185C110.848 34.2695 111.411 34.3868 111.876 34.6213C112.341 34.8559 112.696 35.1863 112.94 35.6126C113.185 36.0389 113.307 36.5381 113.307 37.1104C113.307 37.6869 113.183 38.1828 112.935 38.5981C112.688 39.0134 112.328 39.3318 111.857 39.5532C111.386 39.7747 110.814 39.8854 110.143 39.8854H107.837V38.4364H109.86C110.223 38.4364 110.523 38.3864 110.759 38.2864C110.995 38.1865 111.172 38.0383 111.288 37.8419C111.404 37.6456 111.462 37.4017 111.462 37.1104C111.462 36.8155 111.404 36.567 111.288 36.3649C111.172 36.1629 110.995 36.009 110.758 35.9033C110.521 35.7977 110.22 35.7448 109.854 35.7448H108.569V43H106.779ZM111.636 43L109.514 39.0272H111.452L113.621 43H111.636ZM115.86 43V34.2695H121.705V35.7539H117.65V37.8611H121.396V39.3201H117.65V41.5157H121.717V43H115.86ZM123.846 43L126.832 34.2695H129.172L132.234 43H130.246L128.846 38.7886C128.676 38.2447 128.505 37.6491 128.332 37.0018C128.16 36.3545 127.978 35.6492 127.786 34.8859H128.174C127.989 35.6528 127.815 36.3617 127.653 37.0126C127.492 37.6634 127.33 38.2554 127.17 38.7886L125.82 43H123.846ZM125.711 40.9739V39.5709H130.368V40.9739H125.711ZM134.508 43V34.2695H136.298V41.5157H140.063V43H134.508ZM145.7 37.9387V39.3417H141.729V37.9387H145.7ZM147.242 35.7539V34.2695H154.371V35.7539H151.704V43H149.914V35.7539H147.242ZM158.59 34.2695V43H156.799V34.2695H158.59ZM161.368 43V34.2695H164.115L165.528 38.2775C165.587 38.4633 165.655 38.7052 165.731 39.0029C165.807 39.3007 165.884 39.6214 165.963 39.9651C166.041 40.3087 166.115 40.6424 166.183 40.9662C166.252 41.2899 166.308 41.5718 166.353 41.8117H166.002C166.049 41.5772 166.106 41.2989 166.173 40.9769C166.24 40.655 166.313 40.3217 166.392 39.9772C166.471 39.6327 166.548 39.3102 166.624 39.0097C166.7 38.7092 166.767 38.4651 166.826 38.2775L168.22 34.2695H170.972V43H169.177V38.8839C169.177 38.6936 169.18 38.4564 169.186 38.1721C169.193 37.8878 169.2 37.5808 169.209 37.2509C169.218 36.9211 169.227 36.5884 169.235 36.2528C169.243 35.9173 169.248 35.6022 169.249 35.3076H169.365C169.29 35.632 169.206 35.9665 169.116 36.3112C169.025 36.6559 168.934 36.9908 168.843 37.316C168.752 37.6411 168.665 37.9391 168.583 38.2098C168.5 38.4806 168.43 38.7053 168.371 38.8839L166.926 43H165.418L163.95 38.8839C163.891 38.7071 163.821 38.4846 163.739 38.2166C163.658 37.9485 163.571 37.6528 163.477 37.3295C163.384 37.0061 163.291 36.6712 163.199 36.3247C163.106 35.9782 163.017 35.6392 162.932 35.3076H163.072C163.076 35.5896 163.082 35.8966 163.09 36.2286C163.098 36.5605 163.106 36.8928 163.114 37.2253C163.122 37.5579 163.129 37.8685 163.137 38.1573C163.144 38.446 163.147 38.6882 163.147 38.8839V43H161.368ZM173.748 43V34.2695H179.594V35.7539H175.538V37.8611H179.284V39.3201H175.538V41.5157H179.605V43H173.748ZM189.482 43.127C188.783 43.127 188.175 43.0197 187.658 42.8049C187.14 42.5902 186.736 42.2723 186.447 41.8511C186.158 41.43 186.004 40.9099 185.986 40.2908H187.727C187.75 40.5852 187.837 40.8309 187.99 41.028C188.142 41.2251 188.345 41.3727 188.6 41.471C188.854 41.5692 189.142 41.6183 189.463 41.6183C189.782 41.6183 190.06 41.5718 190.297 41.4788C190.535 41.3857 190.719 41.2552 190.851 41.0873C190.983 40.9194 191.049 40.7254 191.049 40.5054C191.049 40.3043 190.99 40.1365 190.872 40.0018C190.754 39.8672 190.583 39.7517 190.359 39.6552C190.135 39.5588 189.864 39.4729 189.545 39.3976L188.585 39.1588C187.846 38.9786 187.267 38.6961 186.848 38.3113C186.429 37.9265 186.22 37.4165 186.22 36.7815C186.22 36.2555 186.362 35.7953 186.647 35.4009C186.931 35.0064 187.321 34.6997 187.815 34.4808C188.309 34.2618 188.872 34.1523 189.504 34.1523C190.15 34.1523 190.714 34.2629 191.194 34.4839C191.674 34.705 192.049 35.0114 192.317 35.4032C192.586 35.795 192.725 36.2464 192.734 36.7574H191.005C190.971 36.4076 190.821 36.1365 190.555 35.9442C190.29 35.7518 189.934 35.6557 189.488 35.6557C189.185 35.6557 188.926 35.6993 188.711 35.7864C188.497 35.8736 188.333 35.9936 188.221 36.1464C188.109 36.2991 188.054 36.4732 188.054 36.6686C188.054 36.8826 188.119 37.0602 188.249 37.2014C188.379 37.3427 188.551 37.4577 188.765 37.5464C188.978 37.6352 189.207 37.7089 189.452 37.7674L190.239 37.9602C190.607 38.0438 190.949 38.1561 191.266 38.2971C191.583 38.4382 191.86 38.6111 192.098 38.8159C192.336 39.0208 192.521 39.2634 192.653 39.5437C192.785 39.8241 192.851 40.1473 192.851 40.5135C192.851 41.0428 192.718 41.5036 192.451 41.8959C192.184 42.2882 191.799 42.5915 191.297 42.8057C190.795 43.0199 190.19 43.127 189.482 43.127ZM194.901 35.7539V34.2695H202.03V35.7539H199.363V43H197.573V35.7539H194.901ZM202.889 43L205.875 34.2695H208.215L211.277 43H209.289L207.889 38.7886C207.719 38.2447 207.548 37.6491 207.375 37.0018C207.203 36.3545 207.021 35.6492 206.829 34.8859H207.217C207.032 35.6528 206.858 36.3617 206.696 37.0126C206.535 37.6634 206.373 38.2554 206.213 38.7886L204.863 43H202.889ZM204.754 40.9739V39.5709H209.411V40.9739H204.754ZM212.137 35.7539V34.2695H219.266V35.7539H216.599V43H214.809V35.7539H212.137ZM224.833 43.127C224.134 43.127 223.526 43.0197 223.008 42.8049C222.491 42.5902 222.087 42.2723 221.798 41.8511C221.509 41.43 221.355 40.9099 221.337 40.2908H223.078C223.1 40.5852 223.188 40.8309 223.34 41.028C223.493 41.2251 223.696 41.3727 223.951 41.471C224.205 41.5692 224.493 41.6183 224.814 41.6183C225.132 41.6183 225.41 41.5718 225.648 41.4788C225.885 41.3857 226.07 41.2552 226.202 41.0873C226.334 40.9194 226.4 40.7254 226.4 40.5054C226.4 40.3043 226.341 40.1365 226.223 40.0018C226.104 39.8672 225.934 39.7517 225.71 39.6552C225.486 39.5588 225.215 39.4729 224.896 39.3976L223.936 39.1588C223.197 38.9786 222.618 38.6961 222.199 38.3113C221.78 37.9265 221.57 37.4165 221.57 36.7815C221.57 36.2555 221.713 35.7953 221.997 35.4009C222.282 35.0064 222.671 34.6997 223.166 34.4808C223.66 34.2618 224.223 34.1523 224.855 34.1523C225.501 34.1523 226.064 34.2629 226.545 34.4839C227.025 34.705 227.4 35.0114 227.668 35.4032C227.937 35.795 228.076 36.2464 228.085 36.7574H226.356C226.322 36.4076 226.172 36.1365 225.906 35.9442C225.64 35.7518 225.285 35.6557 224.839 35.6557C224.536 35.6557 224.277 35.6993 224.062 35.7864C223.847 35.8736 223.684 35.9936 223.572 36.1464C223.46 36.2991 223.404 36.4732 223.404 36.6686C223.404 36.8826 223.469 37.0602 223.6 37.2014C223.73 37.3427 223.902 37.4577 224.115 37.5464C224.329 37.6352 224.558 37.7089 224.803 37.7674L225.59 37.9602C225.957 38.0438 226.3 38.1561 226.617 38.2971C226.933 38.4382 227.211 38.6111 227.449 38.8159C227.686 39.0208 227.871 39.2634 228.004 39.5437C228.136 39.8241 228.202 40.1473 228.202 40.5135C228.202 41.0428 228.069 41.5036 227.802 41.8959C227.534 42.2882 227.15 42.5915 226.648 42.8057C226.145 43.0199 225.541 43.127 224.833 43.127Z" fill="#065F46"/>
<path d="M112.474 64.2344C111.407 64.2344 110.464 64.0244 109.647 63.6045C108.83 63.1846 108.181 62.6263 107.699 61.9297C107.217 61.2331 106.934 60.4714 106.849 59.6445H110.736C110.827 60.0612 111.036 60.3704 111.361 60.5723C111.687 60.7741 112.058 60.875 112.474 60.875C113.028 60.875 113.482 60.709 113.837 60.377C114.191 60.0449 114.454 59.5827 114.623 58.9902C114.792 58.3978 114.877 57.7109 114.877 56.9297H114.799C114.616 57.3724 114.338 57.7533 113.964 58.0723C113.589 58.3913 113.155 58.6354 112.66 58.8047C112.165 58.974 111.641 59.0586 111.088 59.0586C110.209 59.0586 109.437 58.86 108.773 58.4629C108.109 58.0658 107.593 57.5189 107.225 56.8223C106.858 56.1257 106.674 55.3346 106.674 54.4492C106.674 53.401 106.921 52.4847 107.416 51.7002C107.911 50.9157 108.596 50.3053 109.471 49.8691C110.347 49.4329 111.355 49.2148 112.494 49.2148C113.347 49.2148 114.152 49.3499 114.911 49.6201C115.669 49.8903 116.34 50.3167 116.923 50.8994C117.505 51.4821 117.964 52.2406 118.3 53.1748C118.635 54.109 118.802 55.237 118.802 56.5586C118.802 57.737 118.653 58.7982 118.353 59.7422C118.054 60.6862 117.626 61.4935 117.069 62.1641C116.512 62.8346 115.845 63.3473 115.067 63.7021C114.289 64.057 113.425 64.2344 112.474 64.2344ZM112.533 56.3828C112.826 56.3828 113.094 56.3307 113.339 56.2266C113.583 56.1224 113.794 55.9775 113.973 55.792C114.152 55.6064 114.292 55.3883 114.393 55.1377C114.494 54.887 114.545 54.612 114.545 54.3125C114.545 53.9154 114.458 53.5605 114.286 53.248C114.113 52.9355 113.876 52.6898 113.573 52.5107C113.27 52.3317 112.924 52.2422 112.533 52.2422C112.149 52.2422 111.802 52.3317 111.493 52.5107C111.184 52.6898 110.941 52.9355 110.765 53.248C110.59 53.5605 110.502 53.9154 110.502 54.3125C110.502 54.7096 110.59 55.0645 110.765 55.377C110.941 55.6895 111.182 55.9352 111.488 56.1143C111.794 56.2933 112.142 56.3828 112.533 56.3828ZM126.263 64.1953C125.092 64.1953 124.047 64.013 123.129 63.6484C122.211 63.2839 121.488 62.7891 120.961 62.1641C120.433 61.5391 120.17 60.8359 120.17 60.0547C120.17 59.4557 120.319 58.9072 120.619 58.4092C120.918 57.9111 121.324 57.4961 121.835 57.1641C122.346 56.832 122.917 56.6172 123.549 56.5195V56.4219C122.722 56.2721 122.04 55.8994 121.503 55.3037C120.966 54.708 120.697 54.0065 120.697 53.1992C120.697 52.4375 120.938 51.7604 121.42 51.168C121.901 50.5755 122.562 50.1084 123.402 49.7666C124.242 49.4248 125.196 49.2539 126.263 49.2539C127.338 49.2539 128.296 49.4248 129.139 49.7666C129.983 50.1084 130.645 50.5771 131.127 51.1729C131.608 51.7686 131.849 52.444 131.849 53.1992C131.849 54.013 131.578 54.7161 131.034 55.3086C130.49 55.901 129.812 56.2721 128.998 56.4219V56.5195C129.623 56.6172 130.191 56.832 130.702 57.1641C131.213 57.4961 131.62 57.9111 131.923 58.4092C132.225 58.9072 132.377 59.4557 132.377 60.0547C132.377 60.8359 132.113 61.5391 131.586 62.1641C131.058 62.7891 130.334 63.2839 129.413 63.6484C128.492 64.013 127.442 64.1953 126.263 64.1953ZM126.263 61.4805C126.641 61.4805 126.975 61.404 127.264 61.251C127.554 61.098 127.782 60.8864 127.948 60.6162C128.114 60.346 128.197 60.0417 128.197 59.7031C128.197 59.3711 128.114 59.0765 127.948 58.8193C127.782 58.5622 127.554 58.3587 127.264 58.209C126.975 58.0592 126.641 57.9844 126.263 57.9844C125.899 57.9844 125.572 58.0576 125.282 58.2041C124.992 58.3506 124.764 58.5524 124.598 58.8096C124.432 59.0667 124.349 59.3646 124.349 59.7031C124.349 60.0417 124.432 60.3444 124.598 60.6113C124.764 60.8783 124.992 61.0898 125.282 61.2461C125.572 61.4023 125.899 61.4805 126.263 61.4805ZM126.263 55.25C126.595 55.25 126.89 55.1816 127.147 55.0449C127.404 54.9082 127.608 54.7194 127.758 54.4785C127.907 54.2376 127.982 53.9674 127.982 53.668C127.982 53.362 127.907 53.0918 127.758 52.8574C127.608 52.623 127.404 52.4391 127.147 52.3057C126.89 52.1722 126.595 52.1055 126.263 52.1055C125.938 52.1055 125.647 52.1722 125.389 52.3057C125.132 52.4391 124.93 52.623 124.784 52.8574C124.637 53.0918 124.564 53.362 124.564 53.668C124.564 53.9674 124.637 54.236 124.784 54.4736C124.93 54.7113 125.132 54.9001 125.389 55.04C125.647 55.18 125.938 55.25 126.263 55.25ZM136.4 64.2344C135.827 64.2344 135.349 64.0456 134.965 63.668C134.58 63.2904 134.388 62.8184 134.388 62.252C134.388 61.6855 134.58 61.2135 134.965 60.8359C135.349 60.4583 135.827 60.2695 136.4 60.2695C136.973 60.2695 137.452 60.4583 137.836 60.8359C138.22 61.2135 138.412 61.6855 138.412 62.252C138.412 62.8184 138.22 63.2904 137.836 63.668C137.452 64.0456 136.973 64.2344 136.4 64.2344ZM140.951 61.7344V58.668L146.81 49.4492H149.584V53.5508H148.002L144.838 58.5508V58.668H153.49V61.7344H140.951ZM148.021 64V60.7969L148.119 59.4492V49.4492H151.81V64H148.021ZM159.056 56.832C158.314 56.832 157.688 56.6758 157.177 56.3633C156.665 56.0508 156.278 55.6341 156.014 55.1133C155.751 54.5924 155.619 54.026 155.619 53.4141V52.6523C155.619 52.0273 155.754 51.4544 156.024 50.9336C156.294 50.4128 156.687 49.9961 157.201 49.6836C157.715 49.3711 158.334 49.2148 159.056 49.2148C159.812 49.2148 160.445 49.3711 160.956 49.6836C161.467 49.9961 161.854 50.4128 162.118 50.9336C162.382 51.4544 162.513 52.0273 162.513 52.6523V53.4141C162.513 54.0391 162.38 54.6104 162.113 55.1279C161.846 55.6455 161.455 56.0589 160.941 56.3682C160.427 56.6774 159.799 56.832 159.056 56.832ZM159.056 54.6055C159.447 54.6055 159.704 54.4785 159.828 54.2246C159.952 53.9707 160.013 53.7005 160.013 53.4141V52.6523C160.013 52.3659 159.955 52.0892 159.838 51.8223C159.72 51.5553 159.46 51.4219 159.056 51.4219C158.679 51.4219 158.428 51.5602 158.304 51.8369C158.181 52.1136 158.119 52.3854 158.119 52.6523V53.4141C158.119 53.7005 158.184 53.9707 158.314 54.2246C158.444 54.4785 158.692 54.6055 159.056 54.6055ZM170.15 64.2344C169.408 64.2344 168.781 64.0781 168.27 63.7656C167.759 63.4531 167.372 63.0365 167.108 62.5156C166.844 61.9948 166.713 61.4284 166.713 60.8164V60.0547C166.713 59.4297 166.848 58.8568 167.118 58.3359C167.388 57.8151 167.78 57.3984 168.295 57.0859C168.809 56.7734 169.427 56.6172 170.15 56.6172C170.905 56.6172 171.538 56.7734 172.05 57.0859C172.561 57.3984 172.948 57.8151 173.212 58.3359C173.475 58.8568 173.607 59.4297 173.607 60.0547V60.8164C173.607 61.4414 173.474 62.0127 173.207 62.5303C172.94 63.0479 172.549 63.4613 172.035 63.7705C171.521 64.0798 170.892 64.2344 170.15 64.2344ZM170.15 62.0078C170.541 62.0078 170.798 61.8809 170.922 61.627C171.045 61.373 171.107 61.1029 171.107 60.8164V60.0547C171.107 59.7682 171.049 59.4915 170.931 59.2246C170.814 58.9577 170.554 58.8242 170.15 58.8242C169.773 58.8242 169.522 58.9626 169.398 59.2393C169.274 59.516 169.213 59.7878 169.213 60.0547V60.8164C169.213 61.1029 169.278 61.373 169.408 61.627C169.538 61.8809 169.786 62.0078 170.15 62.0078ZM158.392 64L168.392 49.4492H170.736L160.736 64H158.392ZM186.732 64.1953C185.404 64.1953 184.211 63.9089 183.153 63.3359C182.095 62.763 181.259 61.9215 180.643 60.8115C180.028 59.7015 179.72 58.3424 179.72 56.7344C179.72 55.1133 180.033 53.7461 180.658 52.6328C181.283 51.5195 182.126 50.6781 183.187 50.1084C184.248 49.5387 185.43 49.2539 186.732 49.2539C187.637 49.2539 188.472 49.376 189.237 49.6201C190.002 49.8643 190.674 50.2207 191.254 50.6895C191.833 51.1582 192.302 51.7344 192.66 52.418C193.018 53.1016 193.243 53.8828 193.334 54.7617H189.33C189.291 54.4492 189.208 54.166 189.081 53.9121C188.954 53.6582 188.786 53.4401 188.578 53.2578C188.37 53.0755 188.121 52.9355 187.831 52.8379C187.541 52.7402 187.214 52.6914 186.849 52.6914C186.192 52.6914 185.634 52.8525 185.175 53.1748C184.716 53.4971 184.369 53.9593 184.135 54.5615C183.9 55.1637 183.783 55.888 183.783 56.7344C183.783 57.6198 183.903 58.362 184.144 58.9609C184.385 59.5599 184.732 60.0091 185.184 60.3086C185.637 60.6081 186.185 60.7578 186.83 60.7578C187.194 60.7578 187.52 60.709 187.806 60.6113C188.093 60.5137 188.344 60.3737 188.558 60.1914C188.773 60.0091 188.947 59.791 189.081 59.5371C189.214 59.2832 189.304 59 189.349 58.6875H193.353C193.308 59.306 193.137 59.9375 192.841 60.582C192.544 61.2266 192.121 61.8223 191.571 62.3691C191.021 62.916 190.344 63.3571 189.54 63.6924C188.736 64.0277 187.8 64.1953 186.732 64.1953ZM198.91 49.4492V64H194.984V49.4492H198.91ZM203.949 64.1758C203.252 64.1758 202.635 64.0602 202.098 63.8291C201.561 63.598 201.143 63.248 200.844 62.7793C200.544 62.3105 200.394 61.7148 200.394 60.9922C200.394 60.3932 200.495 59.8822 200.697 59.459C200.899 59.0358 201.182 58.6891 201.547 58.4189C201.911 58.1488 202.336 57.9404 202.821 57.7939C203.306 57.6475 203.832 57.5547 204.398 57.5156C205.01 57.4701 205.5 57.4147 205.868 57.3496C206.236 57.2845 206.503 57.1885 206.669 57.0615C206.835 56.9346 206.918 56.7669 206.918 56.5586V56.5195C206.918 56.3307 206.867 56.1712 206.766 56.041C206.665 55.9108 206.524 55.8115 206.342 55.7432C206.159 55.6748 205.941 55.6406 205.687 55.6406C205.44 55.6406 205.215 55.6764 205.013 55.748C204.812 55.8197 204.644 55.9271 204.51 56.0703C204.377 56.2135 204.288 56.3958 204.242 56.6172L200.707 56.2656C200.811 55.6536 201.065 55.097 201.469 54.5957C201.872 54.0944 202.43 53.694 203.143 53.3945C203.856 53.0951 204.724 52.9453 205.746 52.9453C206.521 52.9453 207.222 53.0365 207.85 53.2188C208.479 53.401 209.016 53.6549 209.462 53.9805C209.908 54.306 210.249 54.6852 210.487 55.1182C210.725 55.5511 210.844 56.0182 210.844 56.5195V64H207.172V62.457H207.094C206.872 62.8672 206.607 63.1976 206.298 63.4482C205.988 63.6989 205.638 63.8828 205.248 64C204.857 64.1172 204.424 64.1758 203.949 64.1758ZM205.219 61.6953C205.518 61.6953 205.8 61.6335 206.063 61.5098C206.327 61.3861 206.542 61.2087 206.708 60.9775C206.874 60.7464 206.957 60.4648 206.957 60.1328V59.2344C206.853 59.2734 206.742 59.3125 206.625 59.3516C206.508 59.3906 206.382 59.4264 206.249 59.459C206.115 59.4915 205.979 59.5208 205.839 59.5469C205.699 59.5729 205.551 59.599 205.394 59.625C205.088 59.6706 204.839 59.7471 204.647 59.8545C204.455 59.9619 204.314 60.0921 204.222 60.2451C204.131 60.3981 204.086 60.569 204.086 60.7578C204.086 60.9596 204.135 61.1305 204.232 61.2705C204.33 61.4105 204.463 61.5163 204.633 61.5879C204.802 61.6595 204.997 61.6953 205.219 61.6953ZM212.836 64V53.082H216.644V55.1719H216.761C216.957 54.3971 217.271 53.8324 217.704 53.4775C218.137 53.1227 218.643 52.9453 219.222 52.9453C219.392 52.9453 219.561 52.9583 219.73 52.9844C219.899 53.0104 220.062 53.0495 220.219 53.1016V56.4414C220.023 56.3698 219.784 56.3193 219.501 56.29C219.218 56.2607 218.975 56.2461 218.773 56.2461C218.389 56.2461 218.044 56.3324 217.738 56.5049C217.432 56.6774 217.193 56.9183 217.02 57.2275C216.848 57.5368 216.761 57.8997 216.761 58.3164V64H212.836ZM221.508 64V53.082H225.433V64H221.508ZM223.461 51.9688C222.927 51.9688 222.471 51.7928 222.094 51.4409C221.716 51.089 221.527 50.6667 221.527 50.174C221.527 49.6713 221.716 49.2458 222.094 48.8975C222.471 48.5492 222.927 48.375 223.461 48.375C223.993 48.375 224.448 48.5488 224.826 48.8964C225.205 49.244 225.394 49.6697 225.394 50.1735C225.394 50.6672 225.205 51.0898 224.826 51.4414C224.448 51.793 223.993 51.9688 223.461 51.9688ZM233.812 53.082V55.9336H226.625V53.082H233.812ZM228.011 50.4844H231.937V60.4941C231.937 60.722 231.996 60.8929 232.113 61.0068C232.23 61.1208 232.419 61.1777 232.679 61.1777C232.797 61.1777 232.968 61.1631 233.192 61.1338C233.417 61.1045 233.565 61.0768 233.636 61.0508L234.105 63.8535C233.656 63.9772 233.233 64.0602 232.836 64.1025C232.439 64.1449 232.064 64.166 231.713 64.166C230.489 64.166 229.566 63.8861 228.944 63.3262C228.322 62.7663 228.011 61.9427 228.011 60.8555V50.4844ZM235.912 67.7891L236.771 64.9961L237.279 65.1328C237.709 65.2435 238.08 65.2744 238.392 65.2256C238.705 65.1768 238.933 65.071 239.076 64.9082C239.219 64.7454 239.252 64.5501 239.174 64.3223L239.066 64.0098L235.023 53.082H239.144L240.56 58.0625C240.769 58.8112 240.93 59.5648 241.044 60.3232C241.158 61.0817 241.299 61.9167 241.469 62.8281H240.756C240.925 61.9167 241.097 61.0785 241.273 60.3135C241.449 59.5485 241.651 58.7982 241.879 58.0625L243.441 53.082H247.504L243.002 64.9961C242.78 65.5885 242.481 66.124 242.103 66.6025C241.726 67.0811 241.236 67.4603 240.634 67.7402C240.031 68.0202 239.271 68.1602 238.353 68.1602C237.904 68.1602 237.461 68.1276 237.025 68.0625C236.589 67.9974 236.218 67.9062 235.912 67.7891Z" fill="#064E3B"/>
<defs>
<filter id="filter0_dd_1_22" x="0" y="0" width="288.02" height="138" filterUnits="userSpaceOnUse" color-interpolation-filters="sRGB">
<feFlood flood-opacity="0" result="BackgroundImageFix"/>
<feColorMatrix in="SourceAlpha" type="matrix" values="0 0 0 0 0 0 0 0 0 0 0 0 0 0 0 0 0 0 127 0" result="hardAlpha"/>
<feMorphology radius="6" operator="erode" in="SourceAlpha" result="effect1_dropShadow_1_22"/>
<feOffset dy="8"/>
<feGaussianBlur stdDeviation="5"/>
<feComposite in2="hardAlpha" operator="out"/>
<feColorMatrix type="matrix" values="0 0 0 0 0 0 0 0 0 0 0 0 0 0 0 0 0 0 0.1 0"/>
<feBlend mode="normal" in2="BackgroundImageFix" result="effect1_dropShadow_1_22"/>
<feColorMatrix in="SourceAlpha" type="matrix" values="0 0 0 0 0 0 0 0 0 0 0 0 0 0 0 0 0 0 127 0" result="hardAlpha"/>
<feMorphology radius="5" operator="erode" in="SourceAlpha" result="effect2_dropShadow_1_22"/>
<feOffset dy="20"/>
<feGaussianBlur stdDeviation="12.5"/>
<feComposite in2="hardAlpha" operator="out"/>
<feColorMatrix type="matrix" values="0 0 0 0 0 0 0 0 0 0 0 0 0 0 0 0 0 0 0.1 0"/>
<feBlend mode="normal" in2="effect1_dropShadow_1_22" result="effect2_dropShadow_1_22"/>
<feBlend mode="normal" in="SourceGraphic" in2="effect2_dropShadow_1_22" result="shape"/>
</filter>
</defs>
</svg>
