<svg width="51" height="68" viewBox="0 0 51 68" fill="none" xmlns="http://www.w3.org/2000/svg">
<path d="M5.1 36L12 24C8.7 24 5.875 22.825 3.525 20.475C1.175 18.125 0 15.3 0 12C0 8.7 1.175 5.875 3.525 3.525C5.875 1.175 8.7 0 12 0C15.3 0 18.125 1.175 20.475 3.525C22.825 5.875 24 8.7 24 12C24 13.15 23.8625 14.2125 23.5875 15.1875C23.3125 16.1625 22.9 17.1 22.35 18L12 36H5.1ZM32.1 36L39 24C35.7 24 32.875 22.825 30.525 20.475C28.175 18.125 27 15.3 27 12C27 8.7 28.175 5.875 30.525 3.525C32.875 1.175 35.7 0 39 0C42.3 0 45.125 1.175 47.475 3.525C49.825 5.875 51 8.7 51 12C51 13.15 50.8625 14.2125 50.5875 15.1875C50.3125 16.1625 49.9 17.1 49.35 18L39 36H32.1ZM12 16.5C13.25 16.5 14.3125 16.0625 15.1875 15.1875C16.0625 14.3125 16.5 13.25 16.5 12C16.5 10.75 16.0625 9.6875 15.1875 8.8125C14.3125 7.9375 13.25 7.5 12 7.5C10.75 7.5 9.6875 7.9375 8.8125 8.8125C7.9375 9.6875 7.5 10.75 7.5 12C7.5 13.25 7.9375 14.3125 8.8125 15.1875C9.6875 16.0625 10.75 16.5 12 16.5ZM39 16.5C40.25 16.5 41.3125 16.0625 42.1875 15.1875C43.0625 14.3125 43.5 13.25 43.5 12C43.5 10.75 43.0625 9.6875 42.1875 8.8125C41.3125 7.9375 40.25 7.5 39 7.5C37.75 7.5 36.6875 7.9375 35.8125 8.8125C34.9375 9.6875 34.5 10.75 34.5 12C34.5 13.25 34.9375 14.3125 35.8125 15.1875C36.6875 16.0625 37.75 16.5 39 16.5Z" fill="#D1FAE5"/>
</svg>
