<svg width="128" height="16" viewBox="0 0 128 16" fill="none" xmlns="http://www.w3.org/2000/svg">
<path d="M4.9 14.7V8.79995L0 0.299951H2.81L6.12 6.03995L9.42 0.299951H12.23L7.34 8.79995V14.7H4.9ZM16.795 15C15.715 15 14.7717 14.7566 13.965 14.27C13.1583 13.7833 12.5317 13.1133 12.085 12.26C11.645 11.4 11.425 10.4133 11.425 9.29995C11.425 8.16662 11.6517 7.17328 12.105 6.31995C12.5583 5.46662 13.1883 4.79995 13.995 4.31995C14.8017 3.83995 15.735 3.59995 16.795 3.59995C17.8817 3.59995 18.8283 3.84328 19.635 4.32995C20.4417 4.81662 21.0683 5.48995 21.515 6.34995C21.9617 7.20328 22.185 8.18662 22.185 9.29995C22.185 10.42 21.9583 11.41 21.505 12.27C21.0583 13.1233 20.4317 13.7933 19.625 14.28C18.8183 14.76 17.875 15 16.795 15ZM16.795 12.74C17.755 12.74 18.4683 12.42 18.935 11.78C19.4017 11.14 19.635 10.3133 19.635 9.29995C19.635 8.25328 19.3983 7.41995 18.925 6.79995C18.4517 6.17328 17.7417 5.85995 16.795 5.85995C16.1483 5.85995 15.615 6.00662 15.195 6.29995C14.7817 6.58662 14.475 6.98995 14.275 7.50995C14.075 8.02328 13.975 8.61995 13.975 9.29995C13.975 10.3466 14.2117 11.1833 14.685 11.81C15.165 12.43 15.8683 12.74 16.795 12.74ZM28.4383 15.01C27.6383 15.01 26.9783 14.8766 26.4583 14.61C25.9383 14.3433 25.5249 14.0033 25.2183 13.59C24.9116 13.1766 24.6849 12.7366 24.5383 12.27C24.3916 11.8033 24.2949 11.3633 24.2483 10.95C24.2083 10.53 24.1883 10.19 24.1883 9.92995V3.89995H26.6283V9.09995C26.6283 9.43328 26.6516 9.80995 26.6983 10.23C26.7449 10.6433 26.8516 11.0433 27.0183 11.43C27.1916 11.81 27.4449 12.1233 27.7783 12.37C28.1183 12.6166 28.5749 12.74 29.1483 12.74C29.4549 12.74 29.7583 12.69 30.0583 12.59C30.3583 12.49 30.6283 12.32 30.8683 12.08C31.1149 11.8333 31.3116 11.4966 31.4583 11.07C31.6049 10.6433 31.6783 10.1033 31.6783 9.44995L33.1083 10.06C33.1083 10.98 32.9283 11.8133 32.5683 12.56C32.2149 13.3066 31.6916 13.9033 30.9983 14.35C30.3049 14.79 29.4516 15.01 28.4383 15.01ZM31.9683 14.7V11.35H31.6783V3.89995H34.0983V14.7H31.9683ZM36.9078 14.7V3.89995H39.0378V6.52995L38.7778 6.18995C38.9111 5.82995 39.0878 5.50328 39.3078 5.20995C39.5345 4.90995 39.8045 4.66328 40.1178 4.46995C40.3845 4.28995 40.6778 4.14995 40.9978 4.04995C41.3245 3.94328 41.6578 3.87995 41.9978 3.85995C42.3378 3.83328 42.6678 3.84662 42.9878 3.89995V6.14995C42.6678 6.05662 42.2978 6.02662 41.8778 6.05995C41.4645 6.09328 41.0911 6.20995 40.7578 6.40995C40.4245 6.58995 40.1511 6.81995 39.9378 7.09995C39.7311 7.37995 39.5778 7.69995 39.4778 8.05995C39.3778 8.41328 39.3278 8.79662 39.3278 9.20995V14.7H36.9078ZM54.99 15C53.55 15 52.3167 14.6866 51.29 14.06C50.2633 13.4266 49.4733 12.5466 48.92 11.42C48.3733 10.2933 48.1 8.98662 48.1 7.49995C48.1 6.01328 48.3733 4.70662 48.92 3.57995C49.4733 2.45328 50.2633 1.57662 51.29 0.94995C52.3167 0.316617 53.55 -4.91142e-05 54.99 -4.91142e-05C56.65 -4.91142e-05 58.0333 0.416618 59.14 1.24995C60.2467 2.07662 61.0233 3.19328 61.47 4.59995L59.04 5.26995C58.76 4.32995 58.2833 3.59662 57.61 3.06995C56.9367 2.53662 56.0633 2.26995 54.99 2.26995C54.0233 2.26995 53.2167 2.48662 52.57 2.91995C51.93 3.35328 51.4467 3.96328 51.12 4.74995C50.8 5.52995 50.6367 6.44662 50.63 7.49995C50.63 8.55328 50.79 9.47328 51.11 10.26C51.4367 11.04 51.9233 11.6466 52.57 12.08C53.2167 12.5133 54.0233 12.73 54.99 12.73C56.0633 12.73 56.9367 12.4633 57.61 11.93C58.2833 11.3966 58.76 10.6633 59.04 9.72995L61.47 10.4C61.0233 11.8066 60.2467 12.9266 59.14 13.76C58.0333 14.5866 56.65 15 54.99 15ZM68.4356 15C67.3556 15 66.4123 14.7566 65.6056 14.27C64.799 13.7833 64.1723 13.1133 63.7256 12.26C63.2856 11.4 63.0656 10.4133 63.0656 9.29995C63.0656 8.16662 63.2923 7.17328 63.7456 6.31995C64.199 5.46662 64.829 4.79995 65.6356 4.31995C66.4423 3.83995 67.3756 3.59995 68.4356 3.59995C69.5223 3.59995 70.469 3.84328 71.2756 4.32995C72.0823 4.81662 72.709 5.48995 73.1556 6.34995C73.6023 7.20328 73.8256 8.18662 73.8256 9.29995C73.8256 10.42 73.599 11.41 73.1456 12.27C72.699 13.1233 72.0723 13.7933 71.2656 14.28C70.459 14.76 69.5156 15 68.4356 15ZM68.4356 12.74C69.3956 12.74 70.109 12.42 70.5756 11.78C71.0423 11.14 71.2756 10.3133 71.2756 9.29995C71.2756 8.25328 71.039 7.41995 70.5656 6.79995C70.0923 6.17328 69.3823 5.85995 68.4356 5.85995C67.789 5.85995 67.2556 6.00662 66.8356 6.29995C66.4223 6.58662 66.1156 6.98995 65.9156 7.50995C65.7156 8.02328 65.6156 8.61995 65.6156 9.29995C65.6156 10.3466 65.8523 11.1833 66.3256 11.81C66.8056 12.43 67.509 12.74 68.4356 12.74ZM80.0789 15.01C79.2789 15.01 78.6189 14.8766 78.0989 14.61C77.5789 14.3433 77.1656 14.0033 76.8589 13.59C76.5522 13.1766 76.3256 12.7366 76.1789 12.27C76.0322 11.8033 75.9356 11.3633 75.8889 10.95C75.8489 10.53 75.8289 10.19 75.8289 9.92995V3.89995H78.2689V9.09995C78.2689 9.43328 78.2922 9.80995 78.3389 10.23C78.3856 10.6433 78.4922 11.0433 78.6589 11.43C78.8322 11.81 79.0856 12.1233 79.4189 12.37C79.7589 12.6166 80.2156 12.74 80.7889 12.74C81.0956 12.74 81.3989 12.69 81.6989 12.59C81.9989 12.49 82.2689 12.32 82.5089 12.08C82.7556 11.8333 82.9522 11.4966 83.0989 11.07C83.2456 10.6433 83.3189 10.1033 83.3189 9.44995L84.7489 10.06C84.7489 10.98 84.5689 11.8133 84.2089 12.56C83.8556 13.3066 83.3322 13.9033 82.6389 14.35C81.9456 14.79 81.0922 15.01 80.0789 15.01ZM83.6089 14.7V11.35H83.3189V3.89995H85.7389V14.7H83.6089ZM88.5484 14.7V3.89995H90.6784V6.52995L90.4184 6.18995C90.5518 5.82995 90.7284 5.50328 90.9484 5.20995C91.1751 4.90995 91.4451 4.66328 91.7584 4.46995C92.0251 4.28995 92.3184 4.14995 92.6384 4.04995C92.9651 3.94328 93.2984 3.87995 93.6384 3.85995C93.9784 3.83328 94.3084 3.84662 94.6284 3.89995V6.14995C94.3084 6.05662 93.9384 6.02662 93.5184 6.05995C93.1051 6.09328 92.7318 6.20995 92.3984 6.40995C92.0651 6.58995 91.7918 6.81995 91.5784 7.09995C91.3718 7.37995 91.2184 7.69995 91.1184 8.05995C91.0184 8.41328 90.9684 8.79662 90.9684 9.20995V14.7H88.5484ZM100.316 15C98.9828 15 97.8994 14.7 97.0661 14.1C96.2328 13.5 95.7261 12.6566 95.5461 11.57L98.0061 11.19C98.1328 11.7233 98.4128 12.1433 98.8461 12.45C99.2794 12.7566 99.8261 12.91 100.486 12.91C101.066 12.91 101.513 12.7966 101.826 12.57C102.146 12.3366 102.306 12.02 102.306 11.62C102.306 11.3733 102.246 11.1766 102.126 11.03C102.013 10.8766 101.759 10.73 101.366 10.59C100.973 10.45 100.369 10.2733 99.5561 10.06C98.6494 9.81995 97.9294 9.56328 97.3961 9.28995C96.8628 9.00995 96.4794 8.67995 96.2461 8.29995C96.0128 7.91995 95.8961 7.45995 95.8961 6.91995C95.8961 6.24662 96.0728 5.65995 96.4261 5.15995C96.7794 4.65995 97.2728 4.27662 97.9061 4.00995C98.5394 3.73662 99.2861 3.59995 100.146 3.59995C100.986 3.59995 101.729 3.72995 102.376 3.98995C103.029 4.24995 103.556 4.61995 103.956 5.09995C104.356 5.57995 104.603 6.14328 104.696 6.78995L102.236 7.22995C102.176 6.76995 101.966 6.40662 101.606 6.13995C101.253 5.87328 100.779 5.72328 100.186 5.68995C99.6194 5.65662 99.1628 5.74328 98.8161 5.94995C98.4694 6.14995 98.2961 6.43328 98.2961 6.79995C98.2961 7.00662 98.3661 7.18328 98.5061 7.32995C98.6461 7.47662 98.9261 7.62328 99.3461 7.76995C99.7728 7.91662 100.406 8.09662 101.246 8.30995C102.106 8.52995 102.793 8.78328 103.306 9.06995C103.826 9.34995 104.199 9.68662 104.426 10.08C104.659 10.4733 104.776 10.95 104.776 11.51C104.776 12.5966 104.379 13.45 103.586 14.07C102.799 14.69 101.709 15 100.316 15ZM111.876 15C110.783 15 109.823 14.7633 108.996 14.29C108.17 13.8166 107.523 13.16 107.056 12.32C106.596 11.48 106.366 10.5133 106.366 9.41995C106.366 8.23995 106.593 7.21662 107.046 6.34995C107.5 5.47662 108.13 4.79995 108.936 4.31995C109.743 3.83995 110.676 3.59995 111.736 3.59995C112.856 3.59995 113.806 3.86328 114.586 4.38995C115.373 4.90995 115.956 5.64662 116.336 6.59995C116.716 7.55328 116.86 8.67662 116.766 9.96995H114.376V9.08995C114.37 7.91662 114.163 7.05995 113.756 6.51995C113.35 5.97995 112.71 5.70995 111.836 5.70995C110.85 5.70995 110.116 6.01662 109.636 6.62995C109.156 7.23662 108.916 8.12662 108.916 9.29995C108.916 10.3933 109.156 11.24 109.636 11.84C110.116 12.44 110.816 12.74 111.736 12.74C112.33 12.74 112.84 12.61 113.266 12.35C113.7 12.0833 114.033 11.7 114.266 11.2L116.646 11.92C116.233 12.8933 115.593 13.65 114.726 14.19C113.866 14.73 112.916 15 111.876 15ZM108.156 9.96995V8.14995H115.586V9.96995H108.156ZM123.168 15C121.834 15 120.751 14.7 119.918 14.1C119.084 13.5 118.578 12.6566 118.398 11.57L120.858 11.19C120.984 11.7233 121.264 12.1433 121.698 12.45C122.131 12.7566 122.678 12.91 123.338 12.91C123.918 12.91 124.364 12.7966 124.678 12.57C124.998 12.3366 125.158 12.02 125.158 11.62C125.158 11.3733 125.098 11.1766 124.978 11.03C124.864 10.8766 124.611 10.73 124.218 10.59C123.824 10.45 123.221 10.2733 122.408 10.06C121.501 9.81995 120.781 9.56328 120.248 9.28995C119.714 9.00995 119.331 8.67995 119.098 8.29995C118.864 7.91995 118.748 7.45995 118.748 6.91995C118.748 6.24662 118.924 5.65995 119.278 5.15995C119.631 4.65995 120.124 4.27662 120.758 4.00995C121.391 3.73662 122.138 3.59995 122.998 3.59995C123.838 3.59995 124.581 3.72995 125.228 3.98995C125.881 4.24995 126.408 4.61995 126.808 5.09995C127.208 5.57995 127.454 6.14328 127.548 6.78995L125.088 7.22995C125.028 6.76995 124.818 6.40662 124.458 6.13995C124.104 5.87328 123.631 5.72328 123.038 5.68995C122.471 5.65662 122.014 5.74328 121.668 5.94995C121.321 6.14995 121.148 6.43328 121.148 6.79995C121.148 7.00662 121.218 7.18328 121.358 7.32995C121.498 7.47662 121.778 7.62328 122.198 7.76995C122.624 7.91662 123.258 8.09662 124.098 8.30995C124.958 8.52995 125.644 8.78328 126.158 9.06995C126.678 9.34995 127.051 9.68662 127.278 10.08C127.511 10.4733 127.628 10.95 127.628 11.51C127.628 12.5966 127.231 13.45 126.438 14.07C125.651 14.69 124.561 15 123.168 15Z" fill="#A7F3D0"/>
</svg>
