<svg width="150" height="32" viewBox="0 0 150 32" fill="none" xmlns="http://www.w3.org/2000/svg">
<path d="M5.904 25V17.968L0 7.72H3.816L7.56 14.224L11.304 7.72H15.12L9.216 17.968V25H5.904ZM20.112 25.36C18.808 25.36 17.664 25.068 16.68 24.484C15.696 23.9 14.93 23.094 14.382 22.066C13.834 21.038 13.56 19.856 13.56 18.52C13.56 17.168 13.84 15.978 14.4 14.95C14.96 13.922 15.732 13.12 16.716 12.544C17.7 11.968 18.832 11.68 20.112 11.68C21.416 11.68 22.562 11.972 23.55 12.556C24.538 13.14 25.308 13.946 25.86 14.974C26.412 16.002 26.688 17.184 26.688 18.52C26.688 19.864 26.41 21.05 25.854 22.078C25.298 23.106 24.526 23.91 23.538 24.49C22.55 25.07 21.408 25.36 20.112 25.36ZM20.112 22.312C21.16 22.312 21.942 21.958 22.458 21.25C22.974 20.542 23.232 19.632 23.232 18.52C23.232 17.368 22.97 16.448 22.446 15.76C21.922 15.072 21.144 14.728 20.112 14.728C19.4 14.728 18.816 14.888 18.36 15.208C17.904 15.528 17.566 15.972 17.346 16.54C17.126 17.108 17.016 17.768 17.016 18.52C17.016 19.68 17.278 20.602 17.802 21.286C18.326 21.97 19.096 22.312 20.112 22.312ZM33.552 25.384C32.536 25.384 31.708 25.212 31.068 24.868C30.428 24.524 29.93 24.088 29.574 23.56C29.218 23.032 28.964 22.482 28.812 21.91C28.66 21.338 28.568 20.816 28.536 20.344C28.504 19.872 28.488 19.528 28.488 19.312V12.04H31.8V18.16C31.8 18.456 31.816 18.834 31.848 19.294C31.88 19.754 31.98 20.216 32.148 20.68C32.316 21.144 32.59 21.532 32.97 21.844C33.35 22.156 33.888 22.312 34.584 22.312C34.864 22.312 35.164 22.268 35.484 22.18C35.804 22.092 36.104 21.922 36.384 21.67C36.664 21.418 36.894 21.046 37.074 20.554C37.254 20.062 37.344 19.416 37.344 18.616L39.216 19.504C39.216 20.528 39.008 21.488 38.592 22.384C38.176 23.28 37.55 24.004 36.714 24.556C35.878 25.108 34.824 25.384 33.552 25.384ZM37.752 25V20.704H37.344V12.04H40.632V25H37.752ZM43.392 25V12.04H46.272V15.208L45.96 14.8C46.128 14.352 46.352 13.944 46.632 13.576C46.912 13.208 47.256 12.904 47.664 12.664C47.976 12.472 48.316 12.322 48.684 12.214C49.052 12.106 49.432 12.038 49.824 12.01C50.216 11.982 50.608 11.992 51 12.04V15.088C50.64 14.976 50.222 14.938 49.746 14.974C49.27 15.01 48.84 15.12 48.456 15.304C48.072 15.48 47.748 15.714 47.484 16.006C47.22 16.298 47.02 16.642 46.884 17.038C46.748 17.434 46.68 17.88 46.68 18.376V25H43.392ZM64.296 25.36C62.568 25.36 61.078 24.984 59.826 24.232C58.574 23.48 57.61 22.428 56.934 21.076C56.258 19.724 55.92 18.152 55.92 16.36C55.92 14.568 56.258 12.996 56.934 11.644C57.61 10.292 58.574 9.24 59.826 8.488C61.078 7.736 62.568 7.36 64.296 7.36C66.28 7.36 67.946 7.852 69.294 8.836C70.642 9.82 71.592 11.152 72.144 12.832L68.856 13.744C68.536 12.696 67.996 11.882 67.236 11.302C66.476 10.722 65.496 10.432 64.296 10.432C63.2 10.432 62.286 10.676 61.554 11.164C60.822 11.652 60.272 12.34 59.904 13.228C59.536 14.116 59.352 15.16 59.352 16.36C59.352 17.56 59.536 18.604 59.904 19.492C60.272 20.38 60.822 21.068 61.554 21.556C62.286 22.044 63.2 22.288 64.296 22.288C65.496 22.288 66.476 21.996 67.236 21.412C67.996 20.828 68.536 20.016 68.856 18.976L72.144 19.888C71.592 21.568 70.642 22.9 69.294 23.884C67.946 24.868 66.28 25.36 64.296 25.36ZM80.016 25.36C78.712 25.36 77.568 25.068 76.584 24.484C75.6 23.9 74.834 23.094 74.286 22.066C73.738 21.038 73.464 19.856 73.464 18.52C73.464 17.168 73.744 15.978 74.304 14.95C74.864 13.922 75.636 13.12 76.62 12.544C77.604 11.968 78.736 11.68 80.016 11.68C81.32 11.68 82.466 11.972 83.454 12.556C84.442 13.14 85.212 13.946 85.764 14.974C86.316 16.002 86.592 17.184 86.592 18.52C86.592 19.864 86.314 21.05 85.758 22.078C85.202 23.106 84.43 23.91 83.442 24.49C82.454 25.07 81.312 25.36 80.016 25.36ZM80.016 22.312C81.064 22.312 81.846 21.958 82.362 21.25C82.878 20.542 83.136 19.632 83.136 18.52C83.136 17.368 82.874 16.448 82.35 15.76C81.826 15.072 81.048 14.728 80.016 14.728C79.304 14.728 78.72 14.888 78.264 15.208C77.808 15.528 77.47 15.972 77.25 16.54C77.03 17.108 76.92 17.768 76.92 18.52C76.92 19.68 77.182 20.602 77.706 21.286C78.23 21.97 79 22.312 80.016 22.312ZM93.456 25.384C92.44 25.384 91.612 25.212 90.972 24.868C90.332 24.524 89.834 24.088 89.478 23.56C89.122 23.032 88.868 22.482 88.716 21.91C88.564 21.338 88.472 20.816 88.44 20.344C88.408 19.872 88.392 19.528 88.392 19.312V12.04H91.704V18.16C91.704 18.456 91.72 18.834 91.752 19.294C91.784 19.754 91.884 20.216 92.052 20.68C92.22 21.144 92.494 21.532 92.874 21.844C93.254 22.156 93.792 22.312 94.488 22.312C94.768 22.312 95.068 22.268 95.388 22.18C95.708 22.092 96.008 21.922 96.288 21.67C96.568 21.418 96.798 21.046 96.978 20.554C97.158 20.062 97.248 19.416 97.248 18.616L99.12 19.504C99.12 20.528 98.912 21.488 98.496 22.384C98.08 23.28 97.454 24.004 96.618 24.556C95.782 25.108 94.728 25.384 93.456 25.384ZM97.656 25V20.704H97.248V12.04H100.536V25H97.656ZM103.296 25V12.04H106.176V15.208L105.864 14.8C106.032 14.352 106.256 13.944 106.536 13.576C106.816 13.208 107.16 12.904 107.568 12.664C107.88 12.472 108.22 12.322 108.588 12.214C108.956 12.106 109.336 12.038 109.728 12.01C110.12 11.982 110.512 11.992 110.904 12.04V15.088C110.544 14.976 110.126 14.938 109.65 14.974C109.174 15.01 108.744 15.12 108.36 15.304C107.976 15.48 107.652 15.714 107.388 16.006C107.124 16.298 106.924 16.642 106.788 17.038C106.652 17.434 106.584 17.88 106.584 18.376V25H103.296ZM117.168 25.36C115.536 25.36 114.218 24.99 113.214 24.25C112.21 23.51 111.6 22.464 111.384 21.112L114.72 20.608C114.856 21.216 115.158 21.692 115.626 22.036C116.094 22.38 116.688 22.552 117.408 22.552C118 22.552 118.456 22.438 118.776 22.21C119.096 21.982 119.256 21.664 119.256 21.256C119.256 21 119.192 20.794 119.064 20.638C118.936 20.482 118.65 20.328 118.206 20.176C117.762 20.024 117.072 19.824 116.136 19.576C115.08 19.304 114.236 19 113.604 18.664C112.972 18.328 112.516 17.926 112.236 17.458C111.956 16.99 111.816 16.424 111.816 15.76C111.816 14.928 112.028 14.206 112.452 13.594C112.876 12.982 113.474 12.51 114.246 12.178C115.018 11.846 115.928 11.68 116.976 11.68C117.992 11.68 118.892 11.836 119.676 12.148C120.46 12.46 121.094 12.904 121.578 13.48C122.062 14.056 122.36 14.736 122.472 15.52L119.136 16.12C119.08 15.64 118.872 15.26 118.512 14.98C118.152 14.7 117.664 14.536 117.048 14.488C116.448 14.448 115.966 14.528 115.602 14.728C115.238 14.928 115.056 15.216 115.056 15.592C115.056 15.816 115.134 16.004 115.29 16.156C115.446 16.308 115.77 16.464 116.262 16.624C116.754 16.784 117.504 16.992 118.512 17.248C119.496 17.504 120.286 17.802 120.882 18.142C121.478 18.482 121.912 18.89 122.184 19.366C122.456 19.842 122.592 20.416 122.592 21.088C122.592 22.416 122.112 23.46 121.152 24.22C120.192 24.98 118.864 25.36 117.168 25.36ZM130.656 25.36C129.328 25.36 128.158 25.074 127.146 24.502C126.134 23.93 125.342 23.142 124.77 22.138C124.198 21.134 123.912 19.984 123.912 18.688C123.912 17.272 124.192 16.04 124.752 14.992C125.312 13.944 126.084 13.13 127.068 12.55C128.052 11.97 129.184 11.68 130.464 11.68C131.824 11.68 132.98 12 133.932 12.64C134.884 13.28 135.588 14.18 136.044 15.34C136.5 16.5 136.66 17.864 136.524 19.432H133.296V18.232C133.296 16.912 133.086 15.962 132.666 15.382C132.246 14.802 131.56 14.512 130.608 14.512C129.496 14.512 128.678 14.85 128.154 15.526C127.63 16.202 127.368 17.2 127.368 18.52C127.368 19.728 127.63 20.662 128.154 21.322C128.678 21.982 129.448 22.312 130.464 22.312C131.104 22.312 131.652 22.172 132.108 21.892C132.564 21.612 132.912 21.208 133.152 20.68L136.416 21.616C135.928 22.8 135.158 23.72 134.106 24.376C133.054 25.032 131.904 25.36 130.656 25.36ZM126.36 19.432V17.008H134.952V19.432H126.36ZM143.688 25.36C142.056 25.36 140.738 24.99 139.734 24.25C138.73 23.51 138.12 22.464 137.904 21.112L141.24 20.608C141.376 21.216 141.678 21.692 142.146 22.036C142.614 22.38 143.208 22.552 143.928 22.552C144.52 22.552 144.976 22.438 145.296 22.21C145.616 21.982 145.776 21.664 145.776 21.256C145.776 21 145.712 20.794 145.584 20.638C145.456 20.482 145.17 20.328 144.726 20.176C144.282 20.024 143.592 19.824 142.656 19.576C141.6 19.304 140.756 19 140.124 18.664C139.492 18.328 139.036 17.926 138.756 17.458C138.476 16.99 138.336 16.424 138.336 15.76C138.336 14.928 138.548 14.206 138.972 13.594C139.396 12.982 139.994 12.51 140.766 12.178C141.538 11.846 142.448 11.68 143.496 11.68C144.512 11.68 145.412 11.836 146.196 12.148C146.98 12.46 147.614 12.904 148.098 13.48C148.582 14.056 148.88 14.736 148.992 15.52L145.656 16.12C145.6 15.64 145.392 15.26 145.032 14.98C144.672 14.7 144.184 14.536 143.568 14.488C142.968 14.448 142.486 14.528 142.122 14.728C141.758 14.928 141.576 15.216 141.576 15.592C141.576 15.816 141.654 16.004 141.81 16.156C141.966 16.308 142.29 16.464 142.782 16.624C143.274 16.784 144.024 16.992 145.032 17.248C146.016 17.504 146.806 17.802 147.402 18.142C147.998 18.482 148.432 18.89 148.704 19.366C148.976 19.842 149.112 20.416 149.112 21.088C149.112 22.416 148.632 23.46 147.672 24.22C146.712 24.98 145.384 25.36 143.688 25.36Z" fill="#065F46"/>
</svg>
